# Blender v3.0.1 OBJ File: ''
# www.blender.org
mtllib smooth_torus.mtl
o Torus
v 1.250000 0.000000 0.000000
v 1.176777 0.176777 0.000000
v 1.000000 0.250000 0.000000
v 0.823223 0.176777 0.000000
v 0.750000 0.000000 0.000000
v 0.823223 -0.176777 0.000000
v 1.000000 -0.250000 0.000000
v 1.176777 -0.176777 0.000000
v 1.082532 0.000000 -0.625000
v 1.019118 0.176777 -0.588388
v 0.866025 0.250000 -0.500000
v 0.712932 0.176777 -0.411612
v 0.649519 0.000000 -0.375000
v 0.712932 -0.176777 -0.411612
v 0.866025 -0.250000 -0.500000
v 1.019118 -0.176777 -0.588388
v 0.625000 0.000000 -1.082532
v 0.588388 0.176777 -1.019119
v 0.500000 0.250000 -0.866025
v 0.411612 0.176777 -0.712932
v 0.375000 0.000000 -0.649519
v 0.411612 -0.176777 -0.712932
v 0.500000 -0.250000 -0.866025
v 0.588388 -0.176777 -1.019119
v 0.000000 0.000000 -1.250000
v 0.000000 0.176777 -1.176777
v 0.000000 0.250000 -1.000000
v 0.000000 0.176777 -0.823223
v 0.000000 0.000000 -0.750000
v 0.000000 -0.176777 -0.823223
v 0.000000 -0.250000 -1.000000
v 0.000000 -0.176777 -1.176777
v -0.625000 0.000000 -1.082532
v -0.588388 0.176777 -1.019119
v -0.500000 0.250000 -0.866026
v -0.411612 0.176777 -0.712932
v -0.375000 0.000000 -0.649519
v -0.411612 -0.176777 -0.712932
v -0.500000 -0.250000 -0.866026
v -0.588388 -0.176777 -1.019119
v -1.082532 0.000000 -0.625000
v -1.019118 0.176777 -0.588389
v -0.866025 0.250000 -0.500000
v -0.712932 0.176777 -0.411612
v -0.649519 0.000000 -0.375000
v -0.712932 -0.176777 -0.411612
v -0.866025 -0.250000 -0.500000
v -1.019118 -0.176777 -0.588389
v -1.250000 0.000000 -0.000000
v -1.176777 0.176777 -0.000000
v -1.000000 0.250000 -0.000000
v -0.823223 0.176777 -0.000000
v -0.750000 0.000000 -0.000000
v -0.823223 -0.176777 -0.000000
v -1.000000 -0.250000 -0.000000
v -1.176777 -0.176777 -0.000000
v -1.082532 0.000000 0.625000
v -0.649519 0.000000 0.375000
v -0.712932 -0.176777 0.411611
v -0.866026 -0.250000 0.500000
v -1.019119 -0.176777 0.588388
v -0.625000 0.000000 1.082532
v -0.375000 0.000000 0.649519
v -0.411612 -0.176777 0.712932
v -0.500000 -0.250000 0.866026
v -0.588388 -0.176777 1.019119
v 0.000000 0.000000 1.250000
v 0.000000 0.000000 0.750000
v 0.000000 -0.176777 0.823223
v 0.000000 -0.250000 1.000000
v 0.000000 -0.176777 1.176777
v 0.625000 0.000000 1.082532
v 0.375000 0.000000 0.649519
v 0.411612 -0.176777 0.712932
v 0.500000 -0.250000 0.866025
v 0.588388 -0.176777 1.019119
v 1.082532 0.000000 0.625000
v 0.649519 0.000000 0.375000
v 0.712932 -0.176777 0.411612
v 0.866025 -0.250000 0.500000
v 1.019118 -0.176777 0.588388
vt 0.500000 0.500000
vt 0.583333 0.500000
vt 0.583333 0.625000
vt 0.500000 0.625000
vt 0.583333 0.750000
vt 0.500000 0.750000
vt 0.583333 0.875000
vt 0.500000 0.875000
vt 0.583333 1.000000
vt 0.500000 1.000000
vt 0.500000 0.000000
vt 0.583333 0.000000
vt 0.583333 0.125000
vt 0.500000 0.125000
vt 0.583333 0.250000
vt 0.500000 0.250000
vt 0.583333 0.375000
vt 0.500000 0.375000
vt 0.666667 0.500000
vt 0.666667 0.625000
vt 0.666667 0.750000
vt 0.666667 0.875000
vt 0.666667 1.000000
vt 0.666667 0.000000
vt 0.666667 0.125000
vt 0.666667 0.250000
vt 0.666667 0.375000
vt 0.750000 0.500000
vt 0.750000 0.625000
vt 0.750000 0.750000
vt 0.750000 0.875000
vt 0.750000 1.000000
vt 0.750000 0.000000
vt 0.750000 0.125000
vt 0.750000 0.250000
vt 0.750000 0.375000
vt 0.250000 0.000000
vt 0.333333 0.000000
vt 0.333333 0.125000
vt 0.250000 0.125000
vt 0.333333 0.250000
vt 0.250000 0.250000
vt 0.333333 0.375000
vt 0.250000 0.375000
vt 0.333333 0.500000
vt 0.250000 0.500000
vt 0.416667 0.000000
vt 0.416667 0.125000
vt 0.416667 0.250000
vt 0.416667 0.375000
vt 0.416667 0.500000
vt 0.833333 0.500000
vt 0.833333 0.625000
vt 0.833333 0.750000
vt 0.833333 0.875000
vt 0.833333 1.000000
vt 0.833333 0.000000
vt 0.833333 0.125000
vt 0.833333 0.250000
vt 0.833333 0.375000
vt 0.916667 0.500000
vt 0.916667 0.625000
vt 0.916667 0.750000
vt 0.916667 0.875000
vt 0.916667 1.000000
vt 0.916667 0.000000
vt 0.916667 0.125000
vt 0.916667 0.250000
vt 0.916667 0.375000
vt 1.000000 0.500000
vt 1.000000 0.625000
vt 1.000000 0.750000
vt 1.000000 0.875000
vt 1.000000 1.000000
vt 1.000000 0.000000
vt 1.000000 0.125000
vt 1.000000 0.250000
vt 1.000000 0.375000
vt 0.000000 0.000000
vt 0.083333 0.000000
vt 0.083333 0.125000
vt 0.000000 0.125000
vt 0.083333 0.250000
vt 0.000000 0.250000
vt 0.083333 0.375000
vt 0.000000 0.375000
vt 0.083333 0.500000
vt 0.000000 0.500000
vt 0.166667 0.000000
vt 0.166667 0.125000
vt 0.166667 0.250000
vt 0.166667 0.375000
vt 0.166667 0.500000
vn 0.8968 0.3715 -0.2403
vn 0.3807 0.9191 -0.1020
vn -0.3807 0.9191 0.1020
vn -0.8968 0.3715 0.2403
vn -0.8968 -0.3715 0.2403
vn -0.3807 -0.9191 0.1020
vn 0.3807 -0.9191 -0.1020
vn 0.8968 -0.3715 -0.2403
vn 0.6565 0.3715 -0.6565
vn 0.2787 0.9191 -0.2787
vn -0.2787 0.9191 0.2787
vn -0.6565 0.3715 0.6565
vn -0.6565 -0.3715 0.6565
vn -0.2787 -0.9191 0.2787
vn 0.2787 -0.9191 -0.2787
vn 0.6565 -0.3715 -0.6565
vn 0.2403 0.3715 -0.8968
vn 0.1020 0.9191 -0.3807
vn -0.1020 0.9191 0.3807
vn -0.2403 0.3715 0.8968
vn -0.2403 -0.3715 0.8968
vn -0.1020 -0.9191 0.3807
vn 0.1020 -0.9191 -0.3807
vn 0.2403 -0.3715 -0.8968
vn -0.2403 -0.3715 -0.8968
vn -0.1020 -0.9191 -0.3807
vn 0.1020 -0.9191 0.3807
vn 0.2403 -0.3715 0.8968
vn -0.6565 -0.3715 -0.6565
vn -0.2787 -0.9191 -0.2787
vn 0.2787 -0.9191 0.2787
vn 0.6565 -0.3715 0.6565
vn -0.8968 -0.3715 -0.2403
vn -0.3807 -0.9191 -0.1020
vn 0.3807 -0.9191 0.1020
vn 0.8968 -0.3715 0.2403
vn 0.0000 0.0000 -1.0000
vn -0.5000 0.0000 -0.8660
vn -0.3681 0.6768 -0.6375
vn 0.0000 0.6768 -0.7362
vn -0.0318 0.9980 -0.0550
vn 0.0000 0.9980 -0.0635
vn 0.3362 0.7402 0.5823
vn 0.0000 0.7402 0.6724
vn 0.5000 0.0000 0.8660
vn 0.0000 0.0000 1.0000
vn 0.3362 -0.7402 0.5823
vn 0.0000 -0.7402 0.6724
vn -0.0318 -0.9980 -0.0550
vn 0.0000 -0.9980 -0.0635
vn -0.3681 -0.6768 -0.6375
vn 0.0000 -0.6768 -0.7362
vn -0.8660 0.0000 -0.5000
vn -0.6375 0.6768 -0.3681
vn -0.0550 0.9980 -0.0318
vn 0.5823 0.7402 0.3362
vn 0.8660 0.0000 0.5000
vn 0.5823 -0.7402 0.3362
vn -0.0550 -0.9980 -0.0318
vn -0.6375 -0.6768 -0.3681
vn -0.9867 -0.1362 -0.0881
vn -0.7223 0.6640 -0.1935
vn -0.0635 0.9978 -0.0170
vn 0.6617 0.7284 0.1773
vn 0.9867 -0.1362 0.0881
vn 0.6724 -0.7402 0.0000
vn -0.0635 -0.9980 0.0000
vn -0.7362 -0.6768 0.0000
vn 0.8001 -0.3827 -0.4619
vn 0.5823 -0.7402 -0.3362
vn -0.0550 -0.9980 0.0318
vn -0.6375 -0.6768 0.3681
vn -0.8001 -0.3827 0.4619
vn 0.4619 -0.3827 -0.8001
vn 0.3362 -0.7402 -0.5823
vn -0.0318 -0.9980 0.0550
vn -0.3681 -0.6768 0.6375
vn -0.4619 -0.3827 0.8001
vn 0.0000 -0.3827 -0.9239
vn 0.0000 -0.7402 -0.6724
vn 0.0000 -0.9980 0.0635
vn 0.0000 -0.6768 0.7362
vn 0.0000 -0.3827 0.9239
usemtl None
s off
f 1/1/1 9/2/1 10/3/1 2/4/1
f 2/4/2 10/3/2 11/5/2 3/6/2
f 3/6/3 11/5/3 12/7/3 4/8/3
f 4/8/4 12/7/4 13/9/4 5/10/4
f 5/11/5 13/12/5 14/13/5 6/14/5
f 6/14/6 14/13/6 15/15/6 7/16/6
f 7/16/7 15/15/7 16/17/7 8/18/7
f 8/18/8 16/17/8 9/2/8 1/1/8
f 9/2/9 17/19/9 18/20/9 10/3/9
f 10/3/10 18/20/10 19/21/10 11/5/10
f 11/5/11 19/21/11 20/22/11 12/7/11
f 12/7/12 20/22/12 21/23/12 13/9/12
f 13/12/13 21/24/13 22/25/13 14/13/13
f 14/13/14 22/25/14 23/26/14 15/15/14
f 15/15/15 23/26/15 24/27/15 16/17/15
f 16/17/16 24/27/16 17/19/16 9/2/16
f 17/19/17 25/28/17 26/29/17 18/20/17
f 18/20/18 26/29/18 27/30/18 19/21/18
f 19/21/19 27/30/19 28/31/19 20/22/19
f 20/22/20 28/31/20 29/32/20 21/23/20
f 21/24/21 29/33/21 30/34/21 22/25/21
f 22/25/22 30/34/22 31/35/22 23/26/22
f 23/26/23 31/35/23 32/36/23 24/27/23
f 24/27/24 32/36/24 25/28/24 17/19/24
f 68/37/25 73/38/25 74/39/25 69/40/25
f 69/40/26 74/39/26 75/41/26 70/42/26
f 70/42/27 75/41/27 76/43/27 71/44/27
f 71/44/28 76/43/28 72/45/28 67/46/28
f 73/38/29 78/47/29 79/48/29 74/39/29
f 74/39/30 79/48/30 80/49/30 75/41/30
f 75/41/31 80/49/31 81/50/31 76/43/31
f 76/43/32 81/50/32 77/51/32 72/45/32
f 78/47/33 5/11/33 6/14/33 79/48/33
f 79/48/34 6/14/34 7/16/34 80/49/34
f 80/49/35 7/16/35 8/18/35 81/50/35
f 81/50/36 8/18/36 1/1/36 77/51/36
s 1
f 25/28/37 33/52/38 34/53/39 26/29/40
f 26/29/40 34/53/39 35/54/41 27/30/42
f 27/30/42 35/54/41 36/55/43 28/31/44
f 28/31/44 36/55/43 37/56/45 29/32/46
f 29/33/46 37/57/45 38/58/47 30/34/48
f 30/34/48 38/58/47 39/59/49 31/35/50
f 31/35/50 39/59/49 40/60/51 32/36/52
f 32/36/52 40/60/51 33/52/38 25/28/37
f 33/52/38 41/61/53 42/62/54 34/53/39
f 34/53/39 42/62/54 43/63/55 35/54/41
f 35/54/41 43/63/55 44/64/56 36/55/43
f 36/55/43 44/64/56 45/65/57 37/56/45
f 37/57/45 45/66/57 46/67/58 38/58/47
f 38/58/47 46/67/58 47/68/59 39/59/49
f 39/59/49 47/68/59 48/69/60 40/60/51
f 40/60/51 48/69/60 41/61/53 33/52/38
f 41/61/53 49/70/61 50/71/62 42/62/54
f 42/62/54 50/71/62 51/72/63 43/63/55
f 43/63/55 51/72/63 52/73/64 44/64/56
f 44/64/56 52/73/64 53/74/65 45/65/57
f 45/66/57 53/75/65 54/76/66 46/67/58
f 46/67/58 54/76/66 55/77/67 47/68/59
f 47/68/59 55/77/67 56/78/68 48/69/60
f 48/69/60 56/78/68 49/70/61 41/61/53
f 53/79/65 58/80/69 59/81/70 54/82/66
f 54/82/66 59/81/70 60/83/71 55/84/67
f 55/84/67 60/83/71 61/85/72 56/86/68
f 56/86/68 61/85/72 57/87/73 49/88/61
f 58/80/69 63/89/74 64/90/75 59/81/70
f 59/81/70 64/90/75 65/91/76 60/83/71
f 60/83/71 65/91/76 66/92/77 61/85/72
f 61/85/72 66/92/77 62/93/78 57/87/73
f 63/89/74 68/37/79 69/40/80 64/90/75
f 64/90/75 69/40/80 70/42/81 65/91/76
f 65/91/76 70/42/81 71/44/82 66/92/77
f 66/92/77 71/44/82 67/46/83 62/93/78
